<svg width="1440" height="189" viewBox="0 0 1440 189" fill="none" xmlns="http://www.w3.org/2000/svg">
<path fill-rule="evenodd" clip-rule="evenodd" d="M0 0.179688L20 24.8694C40 49.0751 80 97.9705 120 115.399C160 132.827 200 118.787 240 112.01C280 104.748 320 104.748 360 108.137C400 112.01 440 118.787 480 122.176C520 125.565 560 125.565 600 101.359C640 77.1536 680 28.2582 720 14.219C760 0.179688 800 20.9965 840 38.4246C880 55.8527 920 69.8919 960 77.1536C1000 83.9312 1040 83.9312 1080 66.5031C1120 49.0751 1160 14.219 1200 7.44138C1240 0.179688 1280 20.9965 1320 28.2582C1360 35.0358 1400 28.2582 1420 24.8694L1440 20.9965V188.5H1420C1400 188.5 1360 188.5 1320 188.5C1280 188.5 1240 188.5 1200 188.5C1160 188.5 1120 188.5 1080 188.5C1040 188.5 1000 188.5 960 188.5C920 188.5 880 188.5 840 188.5C800 188.5 760 188.5 720 188.5C680 188.5 640 188.5 600 188.5C560 188.5 520 188.5 480 188.5C440 188.5 400 188.5 360 188.5C320 188.5 280 188.5 240 188.5C200 188.5 160 188.5 120 188.5C80 188.5 40 188.5 20 188.5H0V0.179688Z" fill="#010C22"/>
</svg>
