<svg width="733" height="98" viewBox="0 0 733 98" fill="none" xmlns="http://www.w3.org/2000/svg">
<path d="M47.7148 27.1016V31.2578H18.9492V28.2773L36.7773 0.6875H40.9062L36.4766 8.67188L24.6914 27.1016H47.7148ZM42.1641 0.6875V40.5H37.1055V0.6875H42.1641ZM58.707 21.5508L54.6602 20.5117L56.6562 0.6875H77.082V5.36328H60.9492L59.7461 16.1914C60.4753 15.7721 61.3958 15.3802 62.5078 15.0156C63.638 14.651 64.9323 14.4688 66.3906 14.4688C68.2318 14.4688 69.8815 14.7878 71.3398 15.4258C72.7982 16.0456 74.0378 16.9388 75.0586 18.1055C76.0977 19.2721 76.8906 20.6758 77.4375 22.3164C77.9844 23.957 78.2578 25.7891 78.2578 27.8125C78.2578 29.7266 77.9935 31.4857 77.4648 33.0898C76.9544 34.694 76.1797 36.0977 75.1406 37.3008C74.1016 38.4857 72.7891 39.4062 71.2031 40.0625C69.6354 40.7188 67.7852 41.0469 65.6523 41.0469C64.0482 41.0469 62.526 40.8281 61.0859 40.3906C59.6641 39.9349 58.388 39.2513 57.2578 38.3398C56.1458 37.4102 55.2344 36.2617 54.5234 34.8945C53.8307 33.5091 53.3932 31.8867 53.2109 30.0273H58.0234C58.2422 31.5221 58.6797 32.7799 59.3359 33.8008C59.9922 34.8216 60.849 35.5964 61.9062 36.125C62.9818 36.6354 64.2305 36.8906 65.6523 36.8906C66.8555 36.8906 67.9219 36.681 68.8516 36.2617C69.7812 35.8424 70.5651 35.2409 71.2031 34.457C71.8411 33.6732 72.3242 32.7253 72.6523 31.6133C72.9987 30.5013 73.1719 29.2526 73.1719 27.8672C73.1719 26.6094 72.9987 25.4427 72.6523 24.3672C72.306 23.2917 71.7865 22.3529 71.0938 21.5508C70.4193 20.7487 69.5898 20.1289 68.6055 19.6914C67.6211 19.2357 66.4909 19.0078 65.2148 19.0078C63.5195 19.0078 62.2344 19.2357 61.3594 19.6914C60.5026 20.1471 59.6185 20.7669 58.707 21.5508Z" fill="white"/>
<path d="M11.2266 91.5H5.28906L5.32812 88.4336H11.2266C13.2578 88.4336 14.9505 88.0104 16.3047 87.1641C17.6589 86.3047 18.6745 85.1068 19.3516 83.5703C20.0417 82.0208 20.3867 80.2109 20.3867 78.1406V76.4023C20.3867 74.7747 20.1914 73.3294 19.8008 72.0664C19.4102 70.7904 18.8372 69.7161 18.082 68.8438C17.3268 67.9583 16.4023 67.2878 15.3086 66.832C14.2279 66.3763 12.9844 66.1484 11.5781 66.1484H5.17188V63.0625H11.5781C13.4401 63.0625 15.1393 63.375 16.6758 64C18.2122 64.612 19.5339 65.5039 20.6406 66.6758C21.7604 67.8346 22.6198 69.2409 23.2188 70.8945C23.8177 72.5352 24.1172 74.3841 24.1172 76.4414V78.1406C24.1172 80.1979 23.8177 82.0534 23.2188 83.707C22.6198 85.3477 21.7539 86.7474 20.6211 87.9062C19.5013 89.0651 18.1471 89.957 16.5586 90.582C14.9831 91.194 13.2057 91.5 11.2266 91.5ZM7.30078 63.0625V91.5H3.53125V63.0625H7.30078ZM39.8789 65.582L30.4648 91.5H26.6172L37.457 63.0625H39.9375L39.8789 65.582ZM47.7695 91.5L38.3359 65.582L38.2773 63.0625H40.7578L51.6367 91.5H47.7695ZM47.2812 80.9727V84.0586H31.3047V80.9727H47.2812ZM54.918 63.0625L62.3008 77.3398L69.7031 63.0625H73.9805L64.1758 80.875V91.5H60.4062V80.875L50.6016 63.0625H54.918ZM92.4766 84.3125C92.4766 83.6484 92.3724 83.0625 92.1641 82.5547C91.9688 82.0339 91.6172 81.5651 91.1094 81.1484C90.6146 80.7318 89.9245 80.3346 89.0391 79.957C88.1667 79.5794 87.0599 79.1953 85.7188 78.8047C84.3125 78.388 83.043 77.9258 81.9102 77.418C80.7773 76.8971 79.8073 76.3047 79 75.6406C78.1927 74.9766 77.5742 74.2148 77.1445 73.3555C76.7148 72.4961 76.5 71.513 76.5 70.4062C76.5 69.2995 76.7279 68.2773 77.1836 67.3398C77.6393 66.4023 78.2904 65.5885 79.1367 64.8984C79.9961 64.1953 81.0182 63.6484 82.2031 63.2578C83.388 62.8672 84.7096 62.6719 86.168 62.6719C88.3034 62.6719 90.1133 63.082 91.5977 63.9023C93.0951 64.7096 94.2344 65.7708 95.0156 67.0859C95.7969 68.388 96.1875 69.7812 96.1875 71.2656H92.4375C92.4375 70.1979 92.2096 69.2539 91.7539 68.4336C91.2982 67.6003 90.6081 66.9492 89.6836 66.4805C88.7591 65.9987 87.5872 65.7578 86.168 65.7578C84.8268 65.7578 83.7201 65.9596 82.8477 66.3633C81.9753 66.7669 81.3242 67.3138 80.8945 68.0039C80.4779 68.694 80.2695 69.4818 80.2695 70.3672C80.2695 70.9661 80.3932 71.513 80.6406 72.0078C80.901 72.4896 81.2982 72.9388 81.832 73.3555C82.3789 73.7721 83.069 74.1562 83.9023 74.5078C84.7487 74.8594 85.7578 75.1979 86.9297 75.5234C88.5443 75.9792 89.9375 76.487 91.1094 77.0469C92.2812 77.6068 93.2448 78.2383 94 78.9414C94.7682 79.6315 95.3346 80.4193 95.6992 81.3047C96.0768 82.1771 96.2656 83.1667 96.2656 84.2734C96.2656 85.4323 96.0312 86.4805 95.5625 87.418C95.0938 88.3555 94.4232 89.1562 93.5508 89.8203C92.6784 90.4844 91.6302 90.9987 90.4062 91.3633C89.1953 91.7148 87.8411 91.8906 86.3438 91.8906C85.0286 91.8906 83.7331 91.7083 82.457 91.3438C81.194 90.9792 80.0417 90.4323 79 89.7031C77.9714 88.974 77.1445 88.0755 76.5195 87.0078C75.9076 85.9271 75.6016 84.6771 75.6016 83.2578H79.3516C79.3516 84.2344 79.5404 85.0742 79.918 85.7773C80.2956 86.4674 80.8099 87.0404 81.4609 87.4961C82.125 87.9518 82.8737 88.2904 83.707 88.5117C84.5534 88.7201 85.4323 88.8242 86.3438 88.8242C87.6589 88.8242 88.7721 88.6419 89.6836 88.2773C90.5951 87.9128 91.2852 87.3919 91.7539 86.7148C92.2357 86.0378 92.4766 85.237 92.4766 84.3125Z" fill="white"/>
<path d="M120.885 78.7148C120.885 77.1849 121.357 75.8991 122.301 74.8574C123.277 73.7832 124.677 73.2461 126.5 73.2461C128.323 73.2461 129.706 73.7832 130.65 74.8574C131.627 75.8991 132.115 77.1849 132.115 78.7148C132.115 80.2122 131.627 81.4818 130.65 82.5234C129.706 83.5651 128.323 84.0859 126.5 84.0859C124.677 84.0859 123.277 83.5651 122.301 82.5234C121.357 81.4818 120.885 80.2122 120.885 78.7148ZM120.934 35.5996C120.934 34.0697 121.406 32.7839 122.35 31.7422C123.326 30.668 124.726 30.1309 126.549 30.1309C128.372 30.1309 129.755 30.668 130.699 31.7422C131.676 32.7839 132.164 34.0697 132.164 35.5996C132.164 37.097 131.676 38.3665 130.699 39.4082C129.755 40.4499 128.372 40.9707 126.549 40.9707C124.726 40.9707 123.326 40.4499 122.35 39.4082C121.406 38.3665 120.934 37.097 120.934 35.5996Z" fill="white"/>
<path d="M210.395 36.3438V40.5H184.336V36.8633L197.379 22.3438C198.983 20.5573 200.223 19.0443 201.098 17.8047C201.991 16.5469 202.611 15.4258 202.957 14.4414C203.322 13.4388 203.504 12.418 203.504 11.3789C203.504 10.0664 203.23 8.88151 202.684 7.82422C202.155 6.7487 201.371 5.89193 200.332 5.25391C199.293 4.61589 198.035 4.29688 196.559 4.29688C194.79 4.29688 193.314 4.64323 192.129 5.33594C190.962 6.01042 190.087 6.95833 189.504 8.17969C188.921 9.40104 188.629 10.8047 188.629 12.3906H183.57C183.57 10.1484 184.062 8.09766 185.047 6.23828C186.031 4.37891 187.49 2.90234 189.422 1.80859C191.354 0.696615 193.733 0.140625 196.559 0.140625C199.074 0.140625 201.225 0.58724 203.012 1.48047C204.798 2.35547 206.165 3.59505 207.113 5.19922C208.079 6.78516 208.562 8.64453 208.562 10.7773C208.562 11.944 208.362 13.1289 207.961 14.332C207.578 15.5169 207.04 16.7018 206.348 17.8867C205.673 19.0716 204.88 20.2383 203.969 21.3867C203.076 22.5352 202.118 23.6654 201.098 24.7773L190.434 36.3438H210.395ZM240.801 17.4219V23.4922C240.801 26.7552 240.509 29.5078 239.926 31.75C239.342 33.9922 238.504 35.7969 237.41 37.1641C236.316 38.5312 234.995 39.5247 233.445 40.1445C231.914 40.7461 230.182 41.0469 228.25 41.0469C226.719 41.0469 225.306 40.8555 224.012 40.4727C222.717 40.0898 221.551 39.4792 220.512 38.6406C219.491 37.7839 218.616 36.6719 217.887 35.3047C217.158 33.9375 216.602 32.2786 216.219 30.3281C215.836 28.3776 215.645 26.099 215.645 23.4922V17.4219C215.645 14.1589 215.936 11.4245 216.52 9.21875C217.121 7.01302 217.969 5.24479 219.062 3.91406C220.156 2.5651 221.469 1.59896 223 1.01562C224.549 0.432292 226.281 0.140625 228.195 0.140625C229.745 0.140625 231.167 0.332031 232.461 0.714844C233.773 1.07943 234.94 1.67188 235.961 2.49219C236.982 3.29427 237.848 4.36979 238.559 5.71875C239.288 7.04948 239.844 8.68099 240.227 10.6133C240.609 12.5456 240.801 14.8151 240.801 17.4219ZM235.715 24.3125V16.5742C235.715 14.7878 235.605 13.2201 235.387 11.8711C235.186 10.5039 234.885 9.33724 234.484 8.37109C234.083 7.40495 233.573 6.62109 232.953 6.01953C232.352 5.41797 231.65 4.98047 230.848 4.70703C230.064 4.41536 229.18 4.26953 228.195 4.26953C226.992 4.26953 225.926 4.4974 224.996 4.95312C224.066 5.39062 223.283 6.09245 222.645 7.05859C222.025 8.02474 221.551 9.29167 221.223 10.8594C220.895 12.4271 220.73 14.332 220.73 16.5742V24.3125C220.73 26.099 220.831 27.6758 221.031 29.043C221.25 30.4102 221.569 31.5951 221.988 32.5977C222.408 33.582 222.918 34.3932 223.52 35.0312C224.121 35.6693 224.814 36.1432 225.598 36.4531C226.4 36.7448 227.284 36.8906 228.25 36.8906C229.49 36.8906 230.574 36.6536 231.504 36.1797C232.434 35.7057 233.208 34.9674 233.828 33.9648C234.466 32.944 234.94 31.6406 235.25 30.0547C235.56 28.4505 235.715 26.5365 235.715 24.3125Z" fill="white"/>
<path d="M169.16 75.2891V78.3555H153.77V75.2891H169.16ZM154.355 63.0625V91.5H150.586V63.0625H154.355ZM172.441 63.0625V91.5H168.691V63.0625H172.441ZM201.035 76.3828V78.1797C201.035 80.3151 200.768 82.2292 200.234 83.9219C199.701 85.6146 198.932 87.0534 197.93 88.2383C196.927 89.4232 195.723 90.3281 194.316 90.9531C192.923 91.5781 191.361 91.8906 189.629 91.8906C187.949 91.8906 186.406 91.5781 185 90.9531C183.607 90.3281 182.396 89.4232 181.367 88.2383C180.352 87.0534 179.564 85.6146 179.004 83.9219C178.444 82.2292 178.164 80.3151 178.164 78.1797V76.3828C178.164 74.2474 178.438 72.3398 178.984 70.6602C179.544 68.9674 180.332 67.5286 181.348 66.3438C182.363 65.1458 183.568 64.2344 184.961 63.6094C186.367 62.9844 187.91 62.6719 189.59 62.6719C191.322 62.6719 192.884 62.9844 194.277 63.6094C195.684 64.2344 196.888 65.1458 197.891 66.3438C198.906 67.5286 199.681 68.9674 200.215 70.6602C200.762 72.3398 201.035 74.2474 201.035 76.3828ZM197.305 78.1797V76.3438C197.305 74.651 197.129 73.1536 196.777 71.8516C196.439 70.5495 195.938 69.4557 195.273 68.5703C194.609 67.6849 193.796 67.0143 192.832 66.5586C191.882 66.1029 190.801 65.875 189.59 65.875C188.418 65.875 187.357 66.1029 186.406 66.5586C185.469 67.0143 184.661 67.6849 183.984 68.5703C183.32 69.4557 182.806 70.5495 182.441 71.8516C182.077 73.1536 181.895 74.651 181.895 76.3438V78.1797C181.895 79.8854 182.077 81.3958 182.441 82.7109C182.806 84.013 183.327 85.1133 184.004 86.0117C184.694 86.8971 185.508 87.5677 186.445 88.0234C187.396 88.4792 188.457 88.707 189.629 88.707C190.853 88.707 191.94 88.4792 192.891 88.0234C193.841 87.5677 194.642 86.8971 195.293 86.0117C195.957 85.1133 196.458 84.013 196.797 82.7109C197.135 81.3958 197.305 79.8854 197.305 78.1797ZM222.949 63.0625H226.699V82.3008C226.699 84.4362 226.224 86.2135 225.273 87.6328C224.323 89.0521 223.06 90.1198 221.484 90.8359C219.922 91.5391 218.223 91.8906 216.387 91.8906C214.46 91.8906 212.715 91.5391 211.152 90.8359C209.603 90.1198 208.372 89.0521 207.461 87.6328C206.562 86.2135 206.113 84.4362 206.113 82.3008V63.0625H209.844V82.3008C209.844 83.7852 210.117 85.0091 210.664 85.9727C211.211 86.9362 211.973 87.6523 212.949 88.1211C213.939 88.5898 215.085 88.8242 216.387 88.8242C217.702 88.8242 218.848 88.5898 219.824 88.1211C220.814 87.6523 221.582 86.9362 222.129 85.9727C222.676 85.0091 222.949 83.7852 222.949 82.3008V63.0625ZM232.617 63.0625H242.031C244.167 63.0625 245.97 63.388 247.441 64.0391C248.926 64.6901 250.052 65.6536 250.82 66.9297C251.602 68.1927 251.992 69.7487 251.992 71.5977C251.992 72.8997 251.725 74.0911 251.191 75.1719C250.671 76.2396 249.915 77.151 248.926 77.9062C247.949 78.6484 246.777 79.2018 245.41 79.5664L244.355 79.9766H235.508L235.469 76.9102H242.148C243.503 76.9102 244.629 76.6758 245.527 76.207C246.426 75.7253 247.103 75.0807 247.559 74.2734C248.014 73.4661 248.242 72.5742 248.242 71.5977C248.242 70.5039 248.027 69.5469 247.598 68.7266C247.168 67.9062 246.491 67.2747 245.566 66.832C244.655 66.3763 243.477 66.1484 242.031 66.1484H236.387V91.5H232.617V63.0625ZM249.238 91.5L242.324 78.6094L246.25 78.5898L253.262 91.2656V91.5H249.238ZM272.422 84.3125C272.422 83.6484 272.318 83.0625 272.109 82.5547C271.914 82.0339 271.562 81.5651 271.055 81.1484C270.56 80.7318 269.87 80.3346 268.984 79.957C268.112 79.5794 267.005 79.1953 265.664 78.8047C264.258 78.388 262.988 77.9258 261.855 77.418C260.723 76.8971 259.753 76.3047 258.945 75.6406C258.138 74.9766 257.52 74.2148 257.09 73.3555C256.66 72.4961 256.445 71.513 256.445 70.4062C256.445 69.2995 256.673 68.2773 257.129 67.3398C257.585 66.4023 258.236 65.5885 259.082 64.8984C259.941 64.1953 260.964 63.6484 262.148 63.2578C263.333 62.8672 264.655 62.6719 266.113 62.6719C268.249 62.6719 270.059 63.082 271.543 63.9023C273.04 64.7096 274.18 65.7708 274.961 67.0859C275.742 68.388 276.133 69.7812 276.133 71.2656H272.383C272.383 70.1979 272.155 69.2539 271.699 68.4336C271.243 67.6003 270.553 66.9492 269.629 66.4805C268.704 65.9987 267.533 65.7578 266.113 65.7578C264.772 65.7578 263.665 65.9596 262.793 66.3633C261.921 66.7669 261.27 67.3138 260.84 68.0039C260.423 68.694 260.215 69.4818 260.215 70.3672C260.215 70.9661 260.339 71.513 260.586 72.0078C260.846 72.4896 261.243 72.9388 261.777 73.3555C262.324 73.7721 263.014 74.1562 263.848 74.5078C264.694 74.8594 265.703 75.1979 266.875 75.5234C268.49 75.9792 269.883 76.487 271.055 77.0469C272.227 77.6068 273.19 78.2383 273.945 78.9414C274.714 79.6315 275.28 80.4193 275.645 81.3047C276.022 82.1771 276.211 83.1667 276.211 84.2734C276.211 85.4323 275.977 86.4805 275.508 87.418C275.039 88.3555 274.368 89.1562 273.496 89.8203C272.624 90.4844 271.576 90.9987 270.352 91.3633C269.141 91.7148 267.786 91.8906 266.289 91.8906C264.974 91.8906 263.678 91.7083 262.402 91.3438C261.139 90.9792 259.987 90.4323 258.945 89.7031C257.917 88.974 257.09 88.0755 256.465 87.0078C255.853 85.9271 255.547 84.6771 255.547 83.2578H259.297C259.297 84.2344 259.486 85.0742 259.863 85.7773C260.241 86.4674 260.755 87.0404 261.406 87.4961C262.07 87.9518 262.819 88.2904 263.652 88.5117C264.499 88.7201 265.378 88.8242 266.289 88.8242C267.604 88.8242 268.717 88.6419 269.629 88.2773C270.54 87.9128 271.23 87.3919 271.699 86.7148C272.181 86.0378 272.422 85.237 272.422 84.3125Z" fill="white"/>
<path d="M300.885 78.7148C300.885 77.1849 301.357 75.8991 302.301 74.8574C303.277 73.7832 304.677 73.2461 306.5 73.2461C308.323 73.2461 309.706 73.7832 310.65 74.8574C311.627 75.8991 312.115 77.1849 312.115 78.7148C312.115 80.2122 311.627 81.4818 310.65 82.5234C309.706 83.5651 308.323 84.0859 306.5 84.0859C304.677 84.0859 303.277 83.5651 302.301 82.5234C301.357 81.4818 300.885 80.2122 300.885 78.7148ZM300.934 35.5996C300.934 34.0697 301.406 32.7839 302.35 31.7422C303.326 30.668 304.726 30.1309 306.549 30.1309C308.372 30.1309 309.755 30.668 310.699 31.7422C311.676 32.7839 312.164 34.0697 312.164 35.5996C312.164 37.097 311.676 38.3665 310.699 39.4082C309.755 40.4499 308.372 40.9707 306.549 40.9707C304.726 40.9707 303.326 40.4499 302.35 39.4082C301.406 38.3665 300.934 37.097 300.934 35.5996Z" fill="white"/>
<path d="M411.215 27.1016V31.2578H382.449V28.2773L400.277 0.6875H404.406L399.977 8.67188L388.191 27.1016H411.215ZM405.664 0.6875V40.5H400.605V0.6875H405.664ZM422.207 21.5508L418.16 20.5117L420.156 0.6875H440.582V5.36328H424.449L423.246 16.1914C423.975 15.7721 424.896 15.3802 426.008 15.0156C427.138 14.651 428.432 14.4688 429.891 14.4688C431.732 14.4688 433.382 14.7878 434.84 15.4258C436.298 16.0456 437.538 16.9388 438.559 18.1055C439.598 19.2721 440.391 20.6758 440.938 22.3164C441.484 23.957 441.758 25.7891 441.758 27.8125C441.758 29.7266 441.493 31.4857 440.965 33.0898C440.454 34.694 439.68 36.0977 438.641 37.3008C437.602 38.4857 436.289 39.4062 434.703 40.0625C433.135 40.7188 431.285 41.0469 429.152 41.0469C427.548 41.0469 426.026 40.8281 424.586 40.3906C423.164 39.9349 421.888 39.2513 420.758 38.3398C419.646 37.4102 418.734 36.2617 418.023 34.8945C417.331 33.5091 416.893 31.8867 416.711 30.0273H421.523C421.742 31.5221 422.18 32.7799 422.836 33.8008C423.492 34.8216 424.349 35.5964 425.406 36.125C426.482 36.6354 427.73 36.8906 429.152 36.8906C430.355 36.8906 431.422 36.681 432.352 36.2617C433.281 35.8424 434.065 35.2409 434.703 34.457C435.341 33.6732 435.824 32.7253 436.152 31.6133C436.499 30.5013 436.672 29.2526 436.672 27.8672C436.672 26.6094 436.499 25.4427 436.152 24.3672C435.806 23.2917 435.286 22.3529 434.594 21.5508C433.919 20.7487 433.09 20.1289 432.105 19.6914C431.121 19.2357 429.991 19.0078 428.715 19.0078C427.02 19.0078 425.734 19.2357 424.859 19.6914C424.003 20.1471 423.118 20.7669 422.207 21.5508Z" fill="white"/>
<path d="M331.66 63.0625H335.312L344.629 86.2461L353.926 63.0625H357.598L346.035 91.5H343.184L331.66 63.0625ZM330.469 63.0625H333.691L334.219 80.4062V91.5H330.469V63.0625ZM355.547 63.0625H358.77V91.5H355.02V80.4062L355.547 63.0625ZM369.434 63.0625V91.5H365.664V63.0625H369.434ZM398.164 63.0625V91.5H394.375L380.059 69.5664V91.5H376.289V63.0625H380.059L394.434 85.0547V63.0625H398.164ZM421.113 63.0625H424.863V82.3008C424.863 84.4362 424.388 86.2135 423.438 87.6328C422.487 89.0521 421.224 90.1198 419.648 90.8359C418.086 91.5391 416.387 91.8906 414.551 91.8906C412.624 91.8906 410.879 91.5391 409.316 90.8359C407.767 90.1198 406.536 89.0521 405.625 87.6328C404.727 86.2135 404.277 84.4362 404.277 82.3008V63.0625H408.008V82.3008C408.008 83.7852 408.281 85.0091 408.828 85.9727C409.375 86.9362 410.137 87.6523 411.113 88.1211C412.103 88.5898 413.249 88.8242 414.551 88.8242C415.866 88.8242 417.012 88.5898 417.988 88.1211C418.978 87.6523 419.746 86.9362 420.293 85.9727C420.84 85.0091 421.113 83.7852 421.113 82.3008V63.0625ZM441.289 63.0625V91.5H437.578V63.0625H441.289ZM450.43 63.0625V66.1484H428.457V63.0625H450.43ZM472.715 88.4336V91.5H457.656V88.4336H472.715ZM458.418 63.0625V91.5H454.648V63.0625H458.418ZM470.723 75.2891V78.3555H457.656V75.2891H470.723ZM472.52 63.0625V66.1484H457.656V63.0625H472.52ZM492.539 84.3125C492.539 83.6484 492.435 83.0625 492.227 82.5547C492.031 82.0339 491.68 81.5651 491.172 81.1484C490.677 80.7318 489.987 80.3346 489.102 79.957C488.229 79.5794 487.122 79.1953 485.781 78.8047C484.375 78.388 483.105 77.9258 481.973 77.418C480.84 76.8971 479.87 76.3047 479.062 75.6406C478.255 74.9766 477.637 74.2148 477.207 73.3555C476.777 72.4961 476.562 71.513 476.562 70.4062C476.562 69.2995 476.79 68.2773 477.246 67.3398C477.702 66.4023 478.353 65.5885 479.199 64.8984C480.059 64.1953 481.081 63.6484 482.266 63.2578C483.451 62.8672 484.772 62.6719 486.23 62.6719C488.366 62.6719 490.176 63.082 491.66 63.9023C493.158 64.7096 494.297 65.7708 495.078 67.0859C495.859 68.388 496.25 69.7812 496.25 71.2656H492.5C492.5 70.1979 492.272 69.2539 491.816 68.4336C491.361 67.6003 490.671 66.9492 489.746 66.4805C488.822 65.9987 487.65 65.7578 486.23 65.7578C484.889 65.7578 483.783 65.9596 482.91 66.3633C482.038 66.7669 481.387 67.3138 480.957 68.0039C480.54 68.694 480.332 69.4818 480.332 70.3672C480.332 70.9661 480.456 71.513 480.703 72.0078C480.964 72.4896 481.361 72.9388 481.895 73.3555C482.441 73.7721 483.132 74.1562 483.965 74.5078C484.811 74.8594 485.82 75.1979 486.992 75.5234C488.607 75.9792 490 76.487 491.172 77.0469C492.344 77.6068 493.307 78.2383 494.062 78.9414C494.831 79.6315 495.397 80.4193 495.762 81.3047C496.139 82.1771 496.328 83.1667 496.328 84.2734C496.328 85.4323 496.094 86.4805 495.625 87.418C495.156 88.3555 494.486 89.1562 493.613 89.8203C492.741 90.4844 491.693 90.9987 490.469 91.3633C489.258 91.7148 487.904 91.8906 486.406 91.8906C485.091 91.8906 483.796 91.7083 482.52 91.3438C481.257 90.9792 480.104 90.4323 479.062 89.7031C478.034 88.974 477.207 88.0755 476.582 87.0078C475.97 85.9271 475.664 84.6771 475.664 83.2578H479.414C479.414 84.2344 479.603 85.0742 479.98 85.7773C480.358 86.4674 480.872 87.0404 481.523 87.4961C482.188 87.9518 482.936 88.2904 483.77 88.5117C484.616 88.7201 485.495 88.8242 486.406 88.8242C487.721 88.8242 488.835 88.6419 489.746 88.2773C490.658 87.9128 491.348 87.3919 491.816 86.7148C492.298 86.0378 492.539 85.237 492.539 84.3125Z" fill="white"/>
<path d="M527.885 78.7148C527.885 77.1849 528.357 75.8991 529.301 74.8574C530.277 73.7832 531.677 73.2461 533.5 73.2461C535.323 73.2461 536.706 73.7832 537.65 74.8574C538.627 75.8991 539.115 77.1849 539.115 78.7148C539.115 80.2122 538.627 81.4818 537.65 82.5234C536.706 83.5651 535.323 84.0859 533.5 84.0859C531.677 84.0859 530.277 83.5651 529.301 82.5234C528.357 81.4818 527.885 80.2122 527.885 78.7148ZM527.934 35.5996C527.934 34.0697 528.406 32.7839 529.35 31.7422C530.326 30.668 531.726 30.1309 533.549 30.1309C535.372 30.1309 536.755 30.668 537.699 31.7422C538.676 32.7839 539.164 34.0697 539.164 35.5996C539.164 37.097 538.676 38.3665 537.699 39.4082C536.755 40.4499 535.372 40.9707 533.549 40.9707C531.726 40.9707 530.326 40.4499 529.35 39.4082C528.406 38.3665 527.934 37.097 527.934 35.5996Z" fill="white"/>
<path d="M641.395 36.3438V40.5H615.336V36.8633L628.379 22.3438C629.983 20.5573 631.223 19.0443 632.098 17.8047C632.991 16.5469 633.611 15.4258 633.957 14.4414C634.322 13.4388 634.504 12.418 634.504 11.3789C634.504 10.0664 634.23 8.88151 633.684 7.82422C633.155 6.7487 632.371 5.89193 631.332 5.25391C630.293 4.61589 629.035 4.29688 627.559 4.29688C625.79 4.29688 624.314 4.64323 623.129 5.33594C621.962 6.01042 621.087 6.95833 620.504 8.17969C619.921 9.40104 619.629 10.8047 619.629 12.3906H614.57C614.57 10.1484 615.062 8.09766 616.047 6.23828C617.031 4.37891 618.49 2.90234 620.422 1.80859C622.354 0.696615 624.733 0.140625 627.559 0.140625C630.074 0.140625 632.225 0.58724 634.012 1.48047C635.798 2.35547 637.165 3.59505 638.113 5.19922C639.079 6.78516 639.562 8.64453 639.562 10.7773C639.562 11.944 639.362 13.1289 638.961 14.332C638.578 15.5169 638.04 16.7018 637.348 17.8867C636.673 19.0716 635.88 20.2383 634.969 21.3867C634.076 22.5352 633.118 23.6654 632.098 24.7773L621.434 36.3438H641.395ZM654.191 18.1055H657.801C659.569 18.1055 661.027 17.8138 662.176 17.2305C663.342 16.6289 664.208 15.8177 664.773 14.7969C665.357 13.7578 665.648 12.5911 665.648 11.2969C665.648 9.76562 665.393 8.48047 664.883 7.44141C664.372 6.40234 663.607 5.61849 662.586 5.08984C661.565 4.5612 660.271 4.29688 658.703 4.29688C657.281 4.29688 656.023 4.57943 654.93 5.14453C653.854 5.69141 653.007 6.47526 652.387 7.49609C651.785 8.51693 651.484 9.72005 651.484 11.1055H646.426C646.426 9.08203 646.936 7.24089 647.957 5.58203C648.978 3.92318 650.409 2.60156 652.25 1.61719C654.109 0.632812 656.26 0.140625 658.703 0.140625C661.109 0.140625 663.215 0.56901 665.02 1.42578C666.824 2.26432 668.228 3.52214 669.23 5.19922C670.233 6.85807 670.734 8.92708 670.734 11.4062C670.734 12.4089 670.497 13.4844 670.023 14.6328C669.568 15.763 668.848 16.8203 667.863 17.8047C666.897 18.7891 665.639 19.6003 664.09 20.2383C662.54 20.8581 660.681 21.168 658.512 21.168H654.191V18.1055ZM654.191 22.2617V19.2266H658.512C661.046 19.2266 663.142 19.5273 664.801 20.1289C666.46 20.7305 667.763 21.5326 668.711 22.5352C669.677 23.5378 670.352 24.6406 670.734 25.8438C671.135 27.0286 671.336 28.2135 671.336 29.3984C671.336 31.2578 671.017 32.9076 670.379 34.3477C669.759 35.7878 668.875 37.0091 667.727 38.0117C666.596 39.0143 665.266 39.7708 663.734 40.2812C662.203 40.7917 660.535 41.0469 658.73 41.0469C656.999 41.0469 655.367 40.8008 653.836 40.3086C652.323 39.8164 650.983 39.1055 649.816 38.1758C648.65 37.2279 647.738 36.0703 647.082 34.7031C646.426 33.3177 646.098 31.7409 646.098 29.9727H651.156C651.156 31.3581 651.457 32.5703 652.059 33.6094C652.678 34.6484 653.553 35.4596 654.684 36.043C655.832 36.6081 657.181 36.8906 658.73 36.8906C660.28 36.8906 661.611 36.6263 662.723 36.0977C663.853 35.5508 664.719 34.7305 665.32 33.6367C665.94 32.543 666.25 31.1667 666.25 29.5078C666.25 27.849 665.904 26.4909 665.211 25.4336C664.518 24.3581 663.534 23.5651 662.258 23.0547C661 22.526 659.514 22.2617 657.801 22.2617H654.191Z" fill="white"/>
<path d="M572.641 84.3125C572.641 83.6484 572.536 83.0625 572.328 82.5547C572.133 82.0339 571.781 81.5651 571.273 81.1484C570.779 80.7318 570.089 80.3346 569.203 79.957C568.331 79.5794 567.224 79.1953 565.883 78.8047C564.477 78.388 563.207 77.9258 562.074 77.418C560.941 76.8971 559.971 76.3047 559.164 75.6406C558.357 74.9766 557.738 74.2148 557.309 73.3555C556.879 72.4961 556.664 71.513 556.664 70.4062C556.664 69.2995 556.892 68.2773 557.348 67.3398C557.803 66.4023 558.454 65.5885 559.301 64.8984C560.16 64.1953 561.182 63.6484 562.367 63.2578C563.552 62.8672 564.874 62.6719 566.332 62.6719C568.467 62.6719 570.277 63.082 571.762 63.9023C573.259 64.7096 574.398 65.7708 575.18 67.0859C575.961 68.388 576.352 69.7812 576.352 71.2656H572.602C572.602 70.1979 572.374 69.2539 571.918 68.4336C571.462 67.6003 570.772 66.9492 569.848 66.4805C568.923 65.9987 567.751 65.7578 566.332 65.7578C564.991 65.7578 563.884 65.9596 563.012 66.3633C562.139 66.7669 561.488 67.3138 561.059 68.0039C560.642 68.694 560.434 69.4818 560.434 70.3672C560.434 70.9661 560.557 71.513 560.805 72.0078C561.065 72.4896 561.462 72.9388 561.996 73.3555C562.543 73.7721 563.233 74.1562 564.066 74.5078C564.913 74.8594 565.922 75.1979 567.094 75.5234C568.708 75.9792 570.102 76.487 571.273 77.0469C572.445 77.6068 573.409 78.2383 574.164 78.9414C574.932 79.6315 575.499 80.4193 575.863 81.3047C576.241 82.1771 576.43 83.1667 576.43 84.2734C576.43 85.4323 576.195 86.4805 575.727 87.418C575.258 88.3555 574.587 89.1562 573.715 89.8203C572.842 90.4844 571.794 90.9987 570.57 91.3633C569.359 91.7148 568.005 91.8906 566.508 91.8906C565.193 91.8906 563.897 91.7083 562.621 91.3438C561.358 90.9792 560.206 90.4323 559.164 89.7031C558.135 88.974 557.309 88.0755 556.684 87.0078C556.072 85.9271 555.766 84.6771 555.766 83.2578H559.516C559.516 84.2344 559.704 85.0742 560.082 85.7773C560.46 86.4674 560.974 87.0404 561.625 87.4961C562.289 87.9518 563.038 88.2904 563.871 88.5117C564.717 88.7201 565.596 88.8242 566.508 88.8242C567.823 88.8242 568.936 88.6419 569.848 88.2773C570.759 87.9128 571.449 87.3919 571.918 86.7148C572.4 86.0378 572.641 85.237 572.641 84.3125ZM599.301 88.4336V91.5H584.242V88.4336H599.301ZM585.004 63.0625V91.5H581.234V63.0625H585.004ZM597.309 75.2891V78.3555H584.242V75.2891H597.309ZM599.105 63.0625V66.1484H584.242V63.0625H599.105ZM621.137 82.457H624.887C624.691 84.2539 624.177 85.862 623.344 87.2812C622.51 88.7005 621.332 89.8268 619.809 90.6602C618.285 91.4805 616.384 91.8906 614.105 91.8906C612.439 91.8906 610.922 91.5781 609.555 90.9531C608.201 90.3281 607.035 89.4427 606.059 88.2969C605.082 87.138 604.327 85.7513 603.793 84.1367C603.272 82.5091 603.012 80.6992 603.012 78.707V75.875C603.012 73.8828 603.272 72.0794 603.793 70.4648C604.327 68.8372 605.089 67.444 606.078 66.2852C607.081 65.1263 608.285 64.2344 609.691 63.6094C611.098 62.9844 612.68 62.6719 614.438 62.6719C616.586 62.6719 618.402 63.0755 619.887 63.8828C621.371 64.6901 622.523 65.8099 623.344 67.2422C624.177 68.6615 624.691 70.3086 624.887 72.1836H621.137C620.954 70.8555 620.616 69.7161 620.121 68.7656C619.626 67.8021 618.923 67.0599 618.012 66.5391C617.1 66.0182 615.909 65.7578 614.438 65.7578C613.174 65.7578 612.061 65.9987 611.098 66.4805C610.147 66.9622 609.346 67.6458 608.695 68.5312C608.057 69.4167 607.576 70.4779 607.25 71.7148C606.924 72.9518 606.762 74.3255 606.762 75.8359V78.707C606.762 80.1003 606.905 81.4089 607.191 82.6328C607.491 83.8568 607.94 84.931 608.539 85.8555C609.138 86.7799 609.9 87.5091 610.824 88.043C611.749 88.5638 612.842 88.8242 614.105 88.8242C615.707 88.8242 616.983 88.5703 617.934 88.0625C618.884 87.5547 619.6 86.8255 620.082 85.875C620.577 84.9245 620.928 83.7852 621.137 82.457ZM651.918 76.3828V78.1797C651.918 80.3151 651.651 82.2292 651.117 83.9219C650.583 85.6146 649.815 87.0534 648.812 88.2383C647.81 89.4232 646.605 90.3281 645.199 90.9531C643.806 91.5781 642.243 91.8906 640.512 91.8906C638.832 91.8906 637.289 91.5781 635.883 90.9531C634.49 90.3281 633.279 89.4232 632.25 88.2383C631.234 87.0534 630.447 85.6146 629.887 83.9219C629.327 82.2292 629.047 80.3151 629.047 78.1797V76.3828C629.047 74.2474 629.32 72.3398 629.867 70.6602C630.427 68.9674 631.215 67.5286 632.23 66.3438C633.246 65.1458 634.451 64.2344 635.844 63.6094C637.25 62.9844 638.793 62.6719 640.473 62.6719C642.204 62.6719 643.767 62.9844 645.16 63.6094C646.566 64.2344 647.771 65.1458 648.773 66.3438C649.789 67.5286 650.564 68.9674 651.098 70.6602C651.645 72.3398 651.918 74.2474 651.918 76.3828ZM648.188 78.1797V76.3438C648.188 74.651 648.012 73.1536 647.66 71.8516C647.322 70.5495 646.82 69.4557 646.156 68.5703C645.492 67.6849 644.678 67.0143 643.715 66.5586C642.764 66.1029 641.684 65.875 640.473 65.875C639.301 65.875 638.24 66.1029 637.289 66.5586C636.352 67.0143 635.544 67.6849 634.867 68.5703C634.203 69.4557 633.689 70.5495 633.324 71.8516C632.96 73.1536 632.777 74.651 632.777 76.3438V78.1797C632.777 79.8854 632.96 81.3958 633.324 82.7109C633.689 84.013 634.21 85.1133 634.887 86.0117C635.577 86.8971 636.391 87.5677 637.328 88.0234C638.279 88.4792 639.34 88.707 640.512 88.707C641.736 88.707 642.823 88.4792 643.773 88.0234C644.724 87.5677 645.525 86.8971 646.176 86.0117C646.84 85.1133 647.341 84.013 647.68 82.7109C648.018 81.3958 648.188 79.8854 648.188 78.1797ZM679.438 63.0625V91.5H675.648L661.332 69.5664V91.5H657.562V63.0625H661.332L675.707 85.0547V63.0625H679.438ZM693.812 91.5H687.875L687.914 88.4336H693.812C695.844 88.4336 697.536 88.0104 698.891 87.1641C700.245 86.3047 701.26 85.1068 701.938 83.5703C702.628 82.0208 702.973 80.2109 702.973 78.1406V76.4023C702.973 74.7747 702.777 73.3294 702.387 72.0664C701.996 70.7904 701.423 69.7161 700.668 68.8438C699.913 67.9583 698.988 67.2878 697.895 66.832C696.814 66.3763 695.57 66.1484 694.164 66.1484H687.758V63.0625H694.164C696.026 63.0625 697.725 63.375 699.262 64C700.798 64.612 702.12 65.5039 703.227 66.6758C704.346 67.8346 705.206 69.2409 705.805 70.8945C706.404 72.5352 706.703 74.3841 706.703 76.4414V78.1406C706.703 80.1979 706.404 82.0534 705.805 83.707C705.206 85.3477 704.34 86.7474 703.207 87.9062C702.087 89.0651 700.733 89.957 699.145 90.582C697.569 91.194 695.792 91.5 693.812 91.5ZM689.887 63.0625V91.5H686.117V63.0625H689.887ZM727.523 84.3125C727.523 83.6484 727.419 83.0625 727.211 82.5547C727.016 82.0339 726.664 81.5651 726.156 81.1484C725.661 80.7318 724.971 80.3346 724.086 79.957C723.214 79.5794 722.107 79.1953 720.766 78.8047C719.359 78.388 718.09 77.9258 716.957 77.418C715.824 76.8971 714.854 76.3047 714.047 75.6406C713.24 74.9766 712.621 74.2148 712.191 73.3555C711.762 72.4961 711.547 71.513 711.547 70.4062C711.547 69.2995 711.775 68.2773 712.23 67.3398C712.686 66.4023 713.337 65.5885 714.184 64.8984C715.043 64.1953 716.065 63.6484 717.25 63.2578C718.435 62.8672 719.757 62.6719 721.215 62.6719C723.35 62.6719 725.16 63.082 726.645 63.9023C728.142 64.7096 729.281 65.7708 730.062 67.0859C730.844 68.388 731.234 69.7812 731.234 71.2656H727.484C727.484 70.1979 727.257 69.2539 726.801 68.4336C726.345 67.6003 725.655 66.9492 724.73 66.4805C723.806 65.9987 722.634 65.7578 721.215 65.7578C719.874 65.7578 718.767 65.9596 717.895 66.3633C717.022 66.7669 716.371 67.3138 715.941 68.0039C715.525 68.694 715.316 69.4818 715.316 70.3672C715.316 70.9661 715.44 71.513 715.688 72.0078C715.948 72.4896 716.345 72.9388 716.879 73.3555C717.426 73.7721 718.116 74.1562 718.949 74.5078C719.796 74.8594 720.805 75.1979 721.977 75.5234C723.591 75.9792 724.984 76.487 726.156 77.0469C727.328 77.6068 728.292 78.2383 729.047 78.9414C729.815 79.6315 730.382 80.4193 730.746 81.3047C731.124 82.1771 731.312 83.1667 731.312 84.2734C731.312 85.4323 731.078 86.4805 730.609 87.418C730.141 88.3555 729.47 89.1562 728.598 89.8203C727.725 90.4844 726.677 90.9987 725.453 91.3633C724.242 91.7148 722.888 91.8906 721.391 91.8906C720.076 91.8906 718.78 91.7083 717.504 91.3438C716.241 90.9792 715.089 90.4323 714.047 89.7031C713.018 88.974 712.191 88.0755 711.566 87.0078C710.954 85.9271 710.648 84.6771 710.648 83.2578H714.398C714.398 84.2344 714.587 85.0742 714.965 85.7773C715.342 86.4674 715.857 87.0404 716.508 87.4961C717.172 87.9518 717.921 88.2904 718.754 88.5117C719.6 88.7201 720.479 88.8242 721.391 88.8242C722.706 88.8242 723.819 88.6419 724.73 88.2773C725.642 87.9128 726.332 87.3919 726.801 86.7148C727.283 86.0378 727.523 85.237 727.523 84.3125Z" fill="white"/>
</svg>
